<?xml version="1.0" encoding="UTF-8"?>
<svg version="1.1" xmlns="http://www.w3.org/2000/svg" width="3357" height="2664">
<path d="M0 0 C1.17272461 0.56444824 2.34544922 1.12889648 3.55371094 1.71044922 C20.83015571 10.06150392 37.59078172 19.0306802 54 29 C54.91072266 29.54897949 55.82144531 30.09795898 56.75976562 30.66357422 C84.58702331 47.46465507 111.22333781 66.26128371 135.9296875 87.3984375 C138.67734045 89.74257701 141.48800228 91.99883316 144.3125 94.25 C150.51755435 99.29725995 156.27643993 104.79800623 162.078125 110.296875 C165.4080241 113.45270386 168.78555919 116.54705355 172.1875 119.625 C180.52081454 127.24305729 188.69695075 135.10372869 196.00390625 143.72265625 C198.28115035 146.32076448 200.64283907 148.82751253 203.01391602 151.33984375 C208.42761447 157.07809424 213.68962902 162.85294543 218.61328125 169.0234375 C220.44089473 171.30271978 222.29018778 173.55168288 224.16796875 175.7890625 C232.89756297 186.21210932 241.08200634 196.94954077 249 208 C249.88220215 209.22855713 249.88220215 209.22855713 250.78222656 210.48193359 C259.29992036 222.38391042 267.38000757 234.50420042 275 247 C275.77077881 248.26336182 275.77077881 248.26336182 276.55712891 249.55224609 C323.31534257 326.60046221 353.47134454 411.14125121 371 544 C371.09571289 545.20696533 371.19142578 546.41393066 371.29003906 547.6574707 C372.26924264 561.7760771 372.24362654 575.9155849 372.25 590.0625 C372.25044186 590.73459503 372.25088371 591.40669006 372.25133896 592.09915161 C372.25938505 615.50814529 371.58886716 638.72078668 369 662 C368.87271515 663.15230103 368.87271515 663.15230103 368.74285889 664.32788086 C360.5034096 737.97979575 339.89899163 809.15250844 308 876 C307.70073608 876.6277533 307.40147217 877.25550659 307.09313965 877.90228271 C298.87573691 895.0976267 289.87614943 911.70350157 280 928 C279.46020508 928.8976709 278.92041016 929.7953418 278.36425781 930.72021484 C262.85016041 956.47173032 245.61477983 981.10327358 226.43701172 1004.25878906 C224.35496868 1006.7815772 222.30593205 1009.3309177 220.25 1011.875 C216.65716766 1016.2640461 212.91693674 1020.49480786 209.09765625 1024.6875 C207.30492554 1026.66384372 205.55204773 1028.6645673 203.8125 1030.6875 C194.80161427 1040.98858073 185.28536377 1050.81019207 175.625 1060.5 C174.79331299 1061.3362793 173.96162598 1062.17255859 173.10473633 1063.03417969 C168.79716701 1067.33097685 164.41816636 1071.47385081 159.8046875 1075.44042969 C157.20384717 1077.68801735 154.70281812 1080.03206032 152.1875 1082.375 C146.64342013 1087.4905942 140.8797901 1092.27340744 135 1097 C133.77109981 1098.00785316 132.54330207 1099.01705155 131.31640625 1100.02734375 C99.22457493 1126.40381056 64.55737385 1149.2958939 28 1169 C27.15163574 1169.45842285 26.30327148 1169.9168457 25.42919922 1170.38916016 C-52.11759634 1212.09084912 -138.24566824 1237.63178515 -226 1245 C-227.78615723 1245.1544458 -227.78615723 1245.1544458 -229.60839844 1245.31201172 C-299.27708876 1251.08883658 -370.10231091 1245.63600742 -438 1229 C-438.63641418 1228.84422485 -439.27282837 1228.68844971 -439.92852783 1228.5279541 C-444.13618791 1227.49409757 -448.33658968 1226.43439876 -452.5319519 1225.35171509 C-454.48151215 1224.84946562 -456.43318457 1224.35543471 -458.38500977 1223.86206055 C-474.22045606 1219.6841012 -489.37918627 1214.20693791 -505 1209 C-505.33 1410.96 -505.66 1612.92 -506 1821 C-556.28375 1821.061875 -606.5675 1821.12375 -658.375 1821.1875 C-674.23868652 1821.21481201 -690.10237305 1821.24212402 -706.44677734 1821.27026367 C-725.8527832 1821.28381348 -725.8527832 1821.28381348 -734.94424438 1821.28633118 C-741.27932093 1821.28912047 -747.61431744 1821.30008964 -753.94937134 1821.31672668 C-761.26770748 1821.33591737 -768.58596729 1821.34448586 -775.90432874 1821.34033485 C-779.64239357 1821.33853925 -783.38028813 1821.34124554 -787.11832118 1821.35764539 C-831.36800761 1821.54213517 -869.26051749 1809.98736953 -902 1779 C-902.94617187 1778.12988281 -903.89234375 1777.25976562 -904.8671875 1776.36328125 C-931.11372898 1751.679085 -947.67445331 1714.19797559 -949.27267226 1678.2568901 C-949.41157419 1673.26967795 -949.39255146 1668.28418298 -949.36914349 1663.29557514 C-949.37136847 1661.37699286 -949.37491064 1659.45841175 -949.37963298 1657.53983399 C-949.38876274 1652.30134053 -949.37937988 1647.06302415 -949.36679858 1641.824544 C-949.35643242 1636.11296353 -949.3636204 1630.40139975 -949.36853105 1624.6898157 C-949.37473453 1614.69106976 -949.36985132 1604.69237753 -949.35761642 1594.69363785 C-949.34453506 1583.97326527 -949.33790226 1573.25292782 -949.33932304 1562.5325489 C-949.33945216 1561.51434986 -949.33945216 1561.51434986 -949.33958388 1560.47558113 C-949.34005305 1557.01397185 -949.34062889 1553.5523626 -949.34124239 1550.09075334 C-949.34545756 1525.07824649 -949.33519787 1500.06576254 -949.31719017 1475.05326271 C-949.2994064 1450.29248758 -949.28786162 1425.53172226 -949.28463173 1400.77094078 C-949.28452849 1400.00119334 -949.28442526 1399.23144591 -949.28431889 1398.43837279 C-949.28337926 1391.40763481 -949.28251619 1384.37689682 -949.28174497 1377.34615882 C-949.27982709 1359.87065575 -949.27694932 1342.3951529 -949.27341938 1324.91965008 C-949.27325943 1324.12396527 -949.27309948 1323.32828046 -949.27293468 1322.50848399 C-949.26507527 1283.82865035 -949.24615471 1245.14882318 -949.22631836 1206.46899414 C-949.21944321 1193.05080164 -949.21261704 1179.63260913 -949.20599365 1166.2144165 C-949.2055828 1165.38218801 -949.20517196 1164.54995951 -949.20474866 1163.69251197 C-949.18570677 1124.98448047 -949.17453654 1086.27644786 -949.16538927 1047.5684129 C-949.16479508 1045.05461264 -949.1641975 1042.54081238 -949.16359923 1040.02701212 C-949.15963979 1023.36754421 -949.15581586 1006.70807626 -949.15208265 990.0486083 C-949.14465367 956.90207082 -949.13642865 923.75553356 -949.12765651 890.60899641 C-949.12723879 889.03056936 -949.12682163 887.4521423 -949.12640502 885.87371525 C-949.10765235 814.84134408 -949.07964055 743.80897765 -949.04760742 672.77661133 C-949.04730762 672.11167027 -949.04700781 671.4467292 -949.04669892 670.76163841 C-949.03169838 637.50775867 -949.01609532 604.25387923 -949 571 C-975.73 571 -1002.46 571 -1030 571 C-1030 728.41 -1030 885.82 -1030 1048 C-1079.231875 1048.061875 -1128.46375 1048.12375 -1179.1875 1048.1875 C-1194.71063232 1048.21481201 -1210.23376465 1048.24212402 -1226.22729492 1048.27026367 C-1245.2388916 1048.28381348 -1245.2388916 1048.28381348 -1254.14985657 1048.28633118 C-1260.34980215 1048.28911679 -1266.54966564 1048.30007011 -1272.74958801 1048.31672668 C-1279.91610332 1048.3359513 -1287.08254053 1048.3444781 -1294.24908175 1048.34033485 C-1297.907646 1048.33854339 -1301.5660362 1048.34119212 -1305.22456777 1048.35764539 C-1333.92781667 1048.4802733 -1360.97307207 1045.8075337 -1387 1033 C-1387.63389648 1032.69191406 -1388.26779297 1032.38382813 -1388.92089844 1032.06640625 C-1403.70322353 1024.79962329 -1416.17994455 1015.40791963 -1428 1004 C-1428.85207031 1003.21109375 -1429.70414063 1002.4221875 -1430.58203125 1001.609375 C-1457.32459515 976.17235359 -1473.04526648 937.43163008 -1474.09129727 900.80306971 C-1474.12524639 897.21342228 -1474.12852941 893.62503249 -1474.12025452 890.03523254 C-1474.12069145 888.65218021 -1474.1215686 887.26912796 -1474.12284368 885.88607615 C-1474.12506468 882.11419416 -1474.12110041 878.34234092 -1474.11606562 874.57046258 C-1474.11172668 870.49222658 -1474.11320998 866.41399206 -1474.1139679 862.33575439 C-1474.11449095 855.27940808 -1474.11136696 848.22307105 -1474.10573006 841.16672707 C-1474.09758547 830.96457559 -1474.09499681 820.76242858 -1474.09374207 810.56027421 C-1474.09155619 794.0059192 -1474.08490871 777.45156913 -1474.07543945 760.8972168 C-1474.06625332 744.82104517 -1474.05917836 728.74487489 -1474.05493164 712.66870117 C-1474.05466892 711.6769216 -1474.05440619 710.68514203 -1474.05413551 709.66330854 C-1474.05283042 704.6875898 -1474.05156673 699.71187105 -1474.05032361 694.73615229 C-1474.03996546 653.4907638 -1474.02153495 612.24538446 -1474 571 C-1500.73 571 -1527.46 571 -1555 571 C-1555 832.03 -1555 1093.06 -1555 1362 C-1869.07109993 1362 -1869.07109993 1362 -1887.8125 1356.25 C-1889.10546997 1355.86485229 -1889.10546997 1355.86485229 -1890.42456055 1355.47192383 C-1914.42967195 1348.08488122 -1934.80326098 1335.15961918 -1953 1318 C-1953.67417969 1317.37867188 -1954.34835937 1316.75734375 -1955.04296875 1316.1171875 C-1979.29774179 1292.97590703 -1997.00662876 1255.91713849 -1998.12608917 1222.20260079 C-1998.13166148 1220.80238149 -1998.13186749 1219.40213395 -1998.1276505 1218.00190991 C-1998.13012667 1216.83041454 -1998.13012667 1216.83041454 -1998.13265286 1215.6352526 C-1998.13697052 1213.01534226 -1998.13417883 1210.39548834 -1998.13142776 1207.77557659 C-1998.13307774 1205.87131271 -1998.13516417 1203.96704917 -1998.13764787 1202.06278619 C-1998.14321991 1196.80803444 -1998.14254111 1191.55329896 -1998.14087028 1186.2985452 C-1998.14014004 1180.58987286 -1998.1451601 1174.88120514 -1998.1494453 1169.17253476 C-1998.15703164 1157.84013177 -1998.15921868 1146.50773348 -1998.15977435 1135.17532821 C-1998.16040849 1125.75018988 -1998.16337508 1116.3250548 -1998.16798782 1106.8999176 C-1998.16831796 1106.22144137 -1998.16864809 1105.54296513 -1998.16898823 1104.84392902 C-1998.17033823 1102.08061051 -1998.17170089 1099.31729201 -1998.17308033 1096.55397351 C-1998.18938443 1063.8351397 -1998.19576927 1031.1163066 -1998.2005282 998.39746942 C-1998.20291142 982.10423472 -1998.20661491 965.81100043 -1998.2105653 949.51776604 C-1998.22323032 897.25201629 -1998.23401385 844.98626656 -1998.23740576 792.7205153 C-1998.237568 790.22236337 -1998.23773356 787.72421144 -1998.23790014 785.22605952 C-1998.23823394 780.21598732 -1998.23856442 775.20591512 -1998.2388947 770.19584292 C-1998.2392816 764.33028235 -1998.23967121 758.46472178 -1998.24006577 752.59916121 C-1998.24017818 750.92039081 -1998.2402896 749.24162042 -1998.24040002 747.56285003 C-1998.24394894 693.65437671 -1998.25902491 639.74591672 -1998.28233776 585.8374485 C-1998.29908223 547.10196908 -1998.31455567 508.36649218 -1998.31907272 469.6310091 C-1998.31921295 468.43576027 -1998.31921295 468.43576027 -1998.31935601 467.216365 C-1998.3213752 449.72267213 -1998.32253113 432.22897931 -1998.3228846 414.73528634 C-1998.32302077 408.47538616 -1998.32322976 402.21548598 -1998.32347785 395.95558581 C-1998.32353941 394.39829298 -1998.32359773 392.84100016 -1998.3236528 391.28370734 C-1998.32457215 366.48151975 -1998.33453482 341.67934608 -1998.34911029 316.87716307 C-1998.36373602 291.88940318 -1998.3687621 266.90166036 -1998.36069075 241.91389695 C-1998.35957543 238.45776269 -1998.35856475 235.0016284 -1998.35761642 231.54549408 C-1998.35733147 230.52928684 -1998.35733147 230.52928684 -1998.35704076 229.49255016 C-1998.35414577 218.13294159 -1998.36311249 206.77337444 -1998.37525584 195.41377181 C-1998.38500136 185.52280267 -1998.38383162 175.63187354 -1998.37381961 165.74090477 C-1998.36842456 160.10648882 -1998.36772736 154.47218251 -1998.38032833 148.83777561 C-1998.39171324 143.70420236 -1998.38909256 138.57082739 -1998.37566125 133.43726082 C-1998.37324097 131.59914899 -1998.37576231 129.76102166 -1998.38405773 127.92292696 C-1998.44800707 112.74597935 -1996.97252691 97.89718474 -1992.5 83.3125 C-1992.25209717 82.50200195 -1992.00419434 81.69150391 -1991.7487793 80.85644531 C-1985.20472134 60.60313399 -1974.67725211 41.65180922 -1960.0390625 26.16015625 C-1958.14010674 24.14842725 -1956.38578319 22.0696332 -1954.625 19.9375 C-1950.29366055 14.97741773 -1945.19760221 11.01280279 -1940 7 C-1939.12214844 6.31808594 -1938.24429688 5.63617187 -1937.33984375 4.93359375 C-1923.14757841 -5.74718325 -1907.15335508 -14.01427583 -1890.1875 -19.25 C-1889.44290527 -19.48412598 -1888.69831055 -19.71825195 -1887.93115234 -19.95947266 C-1873.08243518 -24.30840409 -1858.27716325 -25.44386096 -1842.90339565 -25.37752342 C-1841.03887478 -25.3806608 -1839.17435574 -25.38511042 -1837.30984071 -25.39073652 C-1832.2166791 -25.40234314 -1827.12368971 -25.39546893 -1822.03053113 -25.38540266 C-1816.47796887 -25.37775827 -1810.92543199 -25.38758584 -1805.37287337 -25.39513266 C-1795.65128138 -25.40594673 -1785.92973941 -25.40565195 -1776.20814514 -25.39799118 C-1762.42909966 -25.38716265 -1748.65008784 -25.39159045 -1734.8710436 -25.40032831 C-1709.86871949 -25.41617206 -1684.86641501 -25.41728317 -1659.86408806 -25.40888596 C-1659.12416954 -25.40863757 -1658.38425102 -25.40838918 -1657.62191073 -25.40813327 C-1656.51024523 -25.40776009 -1656.51024523 -25.40776009 -1655.37612185 -25.40737936 C-1632.78036856 -25.39980409 -1610.18462339 -25.3978583 -1587.58886909 -25.4014473 C-1586.07463124 -25.40167973 -1584.56039339 -25.4019112 -1583.04615553 -25.40214171 C-1576.9607794 -25.40307314 -1570.87540328 -25.40402914 -1564.79002716 -25.405021 C-1547.77992003 -25.40777175 -1530.76981287 -25.40948375 -1513.75970554 -25.41037941 C-1512.98516653 -25.41042035 -1512.21062751 -25.41046128 -1511.41261762 -25.41050346 C-1486.73984177 -25.41173093 -1462.06706875 -25.4083525 -1437.39429379 -25.40183067 C-1436.19428432 -25.40151455 -1436.19428432 -25.40151455 -1434.97003224 -25.40119205 C-1421.97916583 -25.39775737 -1408.98829948 -25.3940989 -1395.99743313 -25.39042152 C-1344.47443652 -25.37585226 -1292.9514633 -25.37652983 -1241.4284668 -25.39111328 C-1228.44289877 -25.39477696 -1215.45733075 -25.39841016 -1202.47176266 -25.40183067 C-1201.27234818 -25.40214769 -1201.27234818 -25.40214769 -1200.0487031 -25.40247111 C-1175.40030213 -25.40894124 -1150.75190311 -25.41168219 -1126.10350132 -25.41037941 C-1125.32954749 -25.41033866 -1124.55559365 -25.4102979 -1123.75818667 -25.41025592 C-1106.76746275 -25.40931841 -1089.77673903 -25.40741737 -1072.78601532 -25.4046479 C-1066.70645696 -25.40366051 -1060.6268986 -25.40272126 -1054.54734023 -25.40179577 C-1053.03495859 -25.4015636 -1051.52257694 -25.40132741 -1050.0101953 -25.40108718 C-1027.42080839 -25.39750887 -1004.83143062 -25.40055092 -982.24204485 -25.40813327 C-981.50204353 -25.40838166 -980.76204222 -25.40863004 -979.99961662 -25.40888596 C-979.26098547 -25.409134 -978.52235431 -25.40938205 -977.76134039 -25.40963761 C-952.83096202 -25.41791818 -927.90060719 -25.41485644 -902.97023218 -25.39904372 C-888.60097182 -25.3901567 -874.2317585 -25.38966202 -859.86249854 -25.40098225 C-850.26328631 -25.40771047 -840.66411879 -25.40352073 -831.06491319 -25.39046794 C-825.59651278 -25.38333473 -820.12822317 -25.38088511 -814.65982627 -25.39168589 C-809.67819134 -25.4014248 -804.6967648 -25.39719087 -799.71514486 -25.38214391 C-797.93094234 -25.37914 -796.14672229 -25.38107404 -794.3625338 -25.38876172 C-765.37403517 -25.50473316 -730.51052426 -18.05117644 -708.04029846 1.58662415 C-703.05303401 5.14088008 -697.76992168 4.76878026 -691.83959961 4.78979492 C-690.6285556 4.81301315 -689.4175116 4.83623138 -688.16976929 4.8601532 C-684.85587229 4.91630519 -681.54354568 4.94956942 -678.2293365 4.96801162 C-676.14366936 4.98052078 -674.05813974 4.99909735 -671.97253609 5.01952553 C-664.65002601 5.08977039 -657.32794469 5.12967921 -650.00512695 5.14624023 C-643.99996838 5.16065089 -637.99761292 5.22366059 -631.9934082 5.33081055 C-588.04666841 7.24661846 -588.04666841 7.24661846 -547.95330811 -8.20753479 C-542.33386694 -11.61816871 -536.18195577 -13.82642656 -530.0625 -16.1875 C-528.73821564 -16.70582148 -527.41417911 -17.22477664 -526.09039307 -17.74436951 C-522.40178963 -19.18559455 -518.70421264 -20.59960064 -515 -22 C-514.06764526 -22.3532132 -514.06764526 -22.3532132 -513.11645508 -22.71356201 C-442.30080362 -49.46558066 -367.04093663 -62.93271761 0 0 Z " fill="#FDFDFD" transform="translate(2587,536)"/>
<path d="M0 0 C95.37 0 190.74 0 289 0 C289.33 44.55 289.66 89.1 290 135 C298.58 131.04 307.16 127.08 316 123 C321.18093826 120.84227467 326.32089841 118.73392661 331.5625 116.75 C332.20022339 116.50641754 332.83794678 116.26283508 333.49499512 116.01187134 C372.04635175 101.30217035 412.26153889 91.3910465 453.25 86.625 C453.93353546 86.54537018 454.61707092 86.46574036 455.32131958 86.38369751 C493.91830981 81.97095773 534.49344314 81.61678059 573 87 C573.72968994 87.1018158 574.45937988 87.20363159 575.21118164 87.30853271 C603.05053353 91.24043229 630.4665246 96.50059638 657.26586914 105.13208008 C660.23692992 106.07521081 663.22139399 106.9674303 666.20703125 107.86328125 C673.67789318 110.15947264 680.99910616 112.8149169 688.3125 115.5625 C689.00698242 115.82289063 689.70146484 116.08328125 690.41699219 116.3515625 C703.57128284 121.30320046 716.35219781 126.86266364 729 133 C729.9890332 133.47405273 730.97806641 133.94810547 731.99707031 134.43652344 C767.20397471 151.35618183 801.56372328 172.82662242 831.109375 198.5078125 C833.77418199 200.80530826 836.49413717 203.00096212 839.25 205.1875 C850.69882887 214.53213022 861.1622982 225.08280234 871.625 235.5 C872.72533569 236.59332642 872.72533569 236.59332642 873.84790039 237.70874023 C878.4363804 242.31090307 882.76359526 247.07409428 887 252 C888.02168557 253.15649799 889.04507527 254.31149314 890.0703125 255.46484375 C898.17254368 264.64649698 905.68495017 274.1833466 913 284 C913.48742676 284.65000977 913.97485352 285.30001953 914.47705078 285.96972656 C935.03275732 313.41001898 954.93039791 343.70478222 967.60717773 375.63354492 C969.04127934 379.09977227 970.63160054 382.45387337 972.26171875 385.83203125 C976.1456114 394.04241009 979.32429905 402.4508203 982.375 411 C982.65280304 411.77357849 982.93060608 412.54715698 983.21682739 413.34417725 C998.48127758 455.97401555 1008.12354215 499.85402077 1012 545 C1012.14356934 546.64150024 1012.14356934 546.64150024 1012.29003906 548.31616211 C1013.20187551 560.09568367 1013.24344861 571.87822471 1013.25 583.6875 C1013.25101212 585.33647781 1013.25101212 585.33647781 1013.25204468 587.01876831 C1013.16924157 672.51568874 991.36035878 757.07545885 939 849 C938.54286621 849.75941895 938.08573242 850.51883789 937.61474609 851.30126953 C928.41396672 866.55931569 918.08189549 881.05312615 907 895 C906.4932373 895.63824707 905.98647461 896.27649414 905.46435547 896.93408203 C899.33479824 904.62596704 893.1178539 912.17375411 886.4140625 919.375 C885.13173924 920.76937092 883.85520894 922.17018939 882.62768555 923.61303711 C877.20349741 929.98282609 871.29792465 935.85330771 865.37573242 941.75463867 C863.56639067 943.55862085 861.76245681 945.36788665 859.95898438 947.17773438 C854.1427776 952.99759646 848.3050503 958.70449464 842 964 C840.98997812 964.87655981 839.98081698 965.75411275 838.97265625 966.6328125 C763.65817743 1031.13031248 671.11386675 1071.29184249 573 1084 C572.02095703 1084.12745605 571.04191406 1084.25491211 570.03320312 1084.38623047 C550.96499712 1086.81486458 531.94852907 1087.20456367 512.75 1087.1875 C511.60070007 1087.18722809 510.45140015 1087.18695618 509.26727295 1087.18667603 C484.27287176 1087.15949638 459.71064716 1085.97007324 435 1082 C433.98276855 1081.84192871 432.96553711 1081.68385742 431.91748047 1081.52099609 C381.76364402 1073.62269451 334.89894397 1057.41950719 289 1036 C289 1242.58 289 1449.16 289 1662 C193.63 1662 98.26 1662 0 1662 C0 1113.54 0 565.08 0 0 Z " fill="#0086C0" transform="translate(1792,542)"/>
<path d="M0 0 C346.17 0 692.34 0 1049 0 C1049 95.7 1049 191.4 1049 290 C971.45 290 893.9 290 814 290 C814.16371094 310.12871094 814.32742188 330.25742187 814.49609375 350.99609375 C814.59623454 365.11570916 814.69406877 379.23524634 814.77294922 393.35498047 C814.78075941 394.74223997 814.78075941 394.74223997 814.78872737 396.15752491 C815.0980237 451.5329923 815.09929697 506.90898104 815.09765625 562.28515625 C815.09762838 563.58624185 815.09760051 564.88732745 815.09757179 566.22783989 C815.09667322 598.28532309 815.0872144 630.34280085 815.07373433 662.40028076 C815.06501541 683.13623837 815.05884402 703.87219522 815.05493164 724.6081543 C815.05473435 725.64696605 815.05473435 725.64696605 815.05453308 726.70676389 C815.05321347 733.66760382 815.05193782 740.62844377 815.05069422 747.58928371 C815.04042271 805.05952498 815.02294171 862.52976242 815 920 C777.01184964 920.06880643 739.02370873 920.1215998 701.03550856 920.15319599 C696.54116902 920.15694769 692.0468296 920.1608307 687.55249023 920.16479492 C686.65782371 920.16558185 685.76315718 920.16636878 684.84137955 920.16717956 C670.39316082 920.18020038 655.94497825 920.20383572 641.49678091 920.23145839 C626.64944883 920.25960543 611.80213556 920.27619582 596.9547779 920.28226548 C587.80798006 920.28636273 578.66128444 920.2992592 569.5145181 920.3237494 C563.22514154 920.33972167 556.9358171 920.34437465 550.64642177 920.34050413 C547.02864926 920.33860026 543.41105417 920.34132311 539.79331398 920.35761642 C511.08359376 920.48029267 484.03304918 917.81054589 458 905 C457.36610352 904.69191406 456.73220703 904.38382813 456.07910156 904.06640625 C441.29677647 896.79962329 428.82005545 887.40791963 417 876 C416.14792969 875.21109375 415.29585937 874.4221875 414.41796875 873.609375 C387.67540485 848.17235359 371.95473352 809.43163008 370.90870273 772.80306971 C370.87475361 769.21342228 370.87147059 765.62503249 370.87974548 762.03523254 C370.87930855 760.65218021 370.8784314 759.26912796 370.87715632 757.88607615 C370.87493532 754.11419416 370.87889959 750.34234092 370.88393438 746.57046258 C370.88827332 742.49222658 370.88679002 738.41399206 370.8860321 734.33575439 C370.88550905 727.27940808 370.88863304 720.22307105 370.89426994 713.16672707 C370.90241453 702.96457559 370.90500319 692.76242858 370.90625793 682.56027421 C370.90844381 666.0059192 370.91509129 649.45156913 370.92456055 632.8972168 C370.93374668 616.82104517 370.94082164 600.74487489 370.94506836 584.66870117 C370.94546244 583.18103182 370.94546244 583.18103182 370.94586449 581.66330854 C370.94716958 576.6875898 370.94843327 571.71187105 370.94967639 566.73615229 C370.96003454 525.4907638 370.97846505 484.24538446 371 443 C344.27 443 317.54 443 290 443 C290 653.21 290 863.42 290 1080 C194.3 1080 98.6 1080 0 1080 C0 723.6 0 367.2 0 0 Z " fill="#EEC908" transform="translate(742,664)"/>
<path d="M0 0 C0.72968994 0.1018158 1.45937988 0.20363159 2.21118164 0.30853271 C30.05053353 4.24043229 57.4665246 9.50059638 84.26586914 18.13208008 C87.23692992 19.07521081 90.22139399 19.9674303 93.20703125 20.86328125 C100.67789318 23.15947264 107.99910616 25.8149169 115.3125 28.5625 C116.00698242 28.82289063 116.70146484 29.08328125 117.41699219 29.3515625 C130.57128284 34.30320046 143.35219781 39.86266364 156 46 C156.9890332 46.47405273 157.97806641 46.94810547 158.99707031 47.43652344 C194.20397471 64.35618183 228.56372328 85.82662242 258.109375 111.5078125 C260.77418199 113.80530826 263.49413717 116.00096212 266.25 118.1875 C277.69882887 127.53213022 288.1622982 138.08280234 298.625 148.5 C299.72533569 149.59332642 299.72533569 149.59332642 300.84790039 150.70874023 C305.4363804 155.31090307 309.76359526 160.07409428 314 165 C315.02168557 166.15649799 316.04507527 167.31149314 317.0703125 168.46484375 C325.17254368 177.64649698 332.68495017 187.1833466 340 197 C340.48742676 197.65000977 340.97485352 198.30001953 341.47705078 198.96972656 C362.03275732 226.41001898 381.93039791 256.70478222 394.60717773 288.63354492 C396.04127934 292.09977227 397.63160054 295.45387337 399.26171875 298.83203125 C403.1456114 307.04241009 406.32429905 315.4508203 409.375 324 C409.65280304 324.77357849 409.93060608 325.54715698 410.21682739 326.34417725 C425.48127758 368.97401555 435.12354215 412.85402077 439 458 C439.09571289 459.0943335 439.19142578 460.18866699 439.29003906 461.31616211 C440.20187551 473.09568367 440.24344861 484.87822471 440.25 496.6875 C440.25101212 498.33647781 440.25101212 498.33647781 440.25204468 500.01876831 C440.16924157 585.51568874 418.36035878 670.07545885 366 762 C365.54286621 762.75941895 365.08573242 763.51883789 364.61474609 764.30126953 C355.41396672 779.55931569 345.08189549 794.05312615 334 808 C333.4932373 808.63824707 332.98647461 809.27649414 332.46435547 809.93408203 C326.33479824 817.62596704 320.1178539 825.17375411 313.4140625 832.375 C312.13173924 833.76937092 310.85520894 835.17018939 309.62768555 836.61303711 C304.20349741 842.98282609 298.29792465 848.85330771 292.37573242 854.75463867 C290.56639067 856.55862085 288.76245681 858.36788665 286.95898438 860.17773438 C281.1427776 865.99759646 275.3050503 871.70449464 269 877 C267.98997812 877.87655981 266.98081698 878.75411275 265.97265625 879.6328125 C190.65817743 944.13031248 98.11386675 984.29184249 0 997 C-0.97904297 997.12745605 -1.95808594 997.25491211 -2.96679688 997.38623047 C-22.03500288 999.81486458 -41.05147093 1000.20456367 -60.25 1000.1875 C-61.39929993 1000.18722809 -62.54859985 1000.18695618 -63.73272705 1000.18667603 C-88.72712824 1000.15949638 -113.28935284 998.97007324 -138 995 C-139.52584717 994.76289307 -139.52584717 994.76289307 -141.08251953 994.52099609 C-191.23635598 986.62269451 -238.10105603 970.41950719 -284 949 C-284 853.96 -284 758.92 -284 661 C-278.38605619 666.61394381 -278.38605619 666.61394381 -276.2734375 669.12890625 C-275.80462158 669.68296143 -275.33580566 670.2370166 -274.8527832 670.80786133 C-274.12128052 671.67640747 -274.12128052 671.67640747 -273.375 672.5625 C-262.67679135 685.1430622 -251.72263414 697.44131121 -238.78125 707.76953125 C-237.02833178 709.17531257 -235.29568625 710.6071276 -233.59375 712.07421875 C-219.83960261 723.84794302 -204.073958 733.70902651 -188 742 C-186.84975342 742.59458008 -186.84975342 742.59458008 -185.67626953 743.20117188 C-151.69139435 760.54191217 -113.12271975 771.94223319 -74.78125 772.23828125 C-73.20934402 772.25297203 -73.20934402 772.25297203 -71.60568237 772.26795959 C-40.08852893 772.58252443 -40.08852893 772.58252443 -9 768 C-7.98550781 767.78569336 -6.97101562 767.57138672 -5.92578125 767.35058594 C16.99764867 762.50790563 38.95016425 755.30070824 60 745 C60.78149414 744.62149902 61.56298828 744.24299805 62.36816406 743.85302734 C84.04417304 733.24838775 104.01861044 719.37888045 121.76953125 703.046875 C123.83296274 701.15328813 125.93574581 699.32173836 128.0625 697.5 C135.65450703 690.8531826 142.32412341 683.65569074 148.58862305 675.75097656 C149.71697798 674.35112159 150.86304949 672.96555367 152.01489258 671.58496094 C196.44204673 618.15659869 217.95901629 546.8812284 212.75683594 477.76953125 C212.22573091 472.57416722 211.42640625 467.45589938 210.43994141 462.32861328 C210.00083661 460.00442818 209.62668514 457.67670352 209.26171875 455.33984375 C202.09148604 412.11803728 179.88307376 370.34194809 152 337 C150.79150391 335.53240234 150.79150391 335.53240234 149.55859375 334.03515625 C140.71565301 323.37189894 131.57001325 312.44727515 120.88671875 303.578125 C118.70365939 301.75212918 116.64517753 299.81464608 114.5625 297.875 C107.41589697 291.43868626 99.71522692 285.7289265 92 280 C91.32050293 279.49033691 90.64100586 278.98067383 89.94091797 278.45556641 C60.53651648 256.50419006 26.3311549 240.23477256 -9.1875 231.1875 C-10.27844971 230.9093042 -11.36939941 230.6311084 -12.4934082 230.34448242 C-30.22054436 226.03829019 -47.21908415 224.48301869 -65.4375 224.625 C-67.015811 224.63148056 -67.015811 224.63148056 -68.62600708 224.63809204 C-85.23657028 224.71790889 -101.57664959 225.30786276 -118 228 C-119.05010254 228.17160645 -120.10020508 228.34321289 -121.18212891 228.52001953 C-180.32015504 238.57860765 -226.83497364 267.17446054 -264.75 313.0625 C-265.3483667 313.78622803 -265.9467334 314.50995605 -266.56323242 315.25561523 C-271.15922118 320.86439323 -275.50869783 326.62142636 -279.71191406 332.52954102 C-280.78711966 334.03478772 -281.89045263 335.51988535 -283 337 C-283.33 337 -283.66 337 -284 337 C-284 241.96 -284 146.92 -284 49 C-232.89063746 23.44531873 -178.75358157 6.96780286 -122 0 C-121.11086914 -0.11182617 -120.22173828 -0.22365234 -119.30566406 -0.33886719 C-114.21118116 -0.97342557 -109.11656835 -1.57332229 -104 -2 C-102.96286865 -2.08685059 -101.9257373 -2.17370117 -100.85717773 -2.26318359 C-67.5875745 -4.69525512 -33.06855987 -4.62298704 0 0 Z " fill="#6B6868" transform="translate(2365,629)"/>
<path d="M0 0 C172.92 0 345.84 0 524 0 C524 95.7 524 191.4 524 290 C446.45 290 368.9 290 289 290 C289.16371094 311.71683594 289.32742188 333.43367188 289.49609375 355.80859375 C289.59355603 369.92820882 289.69018767 384.04777892 289.77294922 398.16748047 C289.78075941 399.49265537 289.78075941 399.49265537 289.78872737 400.84460148 C290.03829693 443.42887605 290.09952358 486.01272949 290.09765625 528.59765625 C290.09762838 529.47730811 290.09760051 530.35695996 290.09757179 531.26326793 C290.09665075 553.46834827 290.08623072 575.67342022 290.07202661 597.87849557 C290.06390753 610.72034755 290.05858026 623.56219874 290.05493164 636.40405273 C290.05466364 637.33770261 290.05439565 638.27135249 290.05411953 639.23329479 C290.05203613 646.55143084 290.05008061 653.86956692 290.04816496 661.18770301 C290.03898781 696.12514073 290.01881616 731.06256357 290 766 C194.3 766 98.6 766 0 766 C0 513.22 0 260.44 0 0 Z " fill="#BD0D7D" transform="translate(1267,664)"/>
<path d="M0 0 C1.5809848 0.00131424 1.5809848 0.00131424 3.19390869 0.00265503 C18.5834313 0.04479853 33.20391879 0.58138201 48.1875 4.375 C49.22342285 4.62169434 50.2593457 4.86838867 51.32666016 5.12255859 C89.93717492 14.37885419 126.36002982 31.63842079 158.1875 55.375 C158.76935059 55.80522461 159.35120117 56.23544922 159.95068359 56.67871094 C171.78231363 65.45734869 182.84263072 75.09695801 193.625 85.125 C194.27509033 85.72658936 194.92518066 86.32817871 195.5949707 86.94799805 C199.51997703 90.63610275 203.13285449 94.48865621 206.63989258 98.57568359 C208.4745789 100.70877054 210.39236892 102.75632724 212.3125 104.8125 C227.57498691 121.78521464 240.65468723 141.14369859 251.1875 161.375 C251.64624512 162.24914551 252.10499023 163.12329102 252.57763672 164.02392578 C265.12766935 188.21780668 273.67272792 213.47859603 278.1875 240.375 C278.31592285 241.07641113 278.4443457 241.77782227 278.57666016 242.50048828 C290.00320781 306.02570078 268.58282828 377.98981791 232.6171875 430.125 C227.7443807 437.08960263 222.62674028 443.84205252 217.1875 450.375 C216.75743652 450.89529785 216.32737305 451.4155957 215.88427734 451.95166016 C206.21734968 463.60913431 195.89630277 474.73005252 184.1875 484.375 C183.70716309 484.77976562 183.22682617 485.18453125 182.73193359 485.6015625 C166.58722854 499.17261448 148.93029272 510.72099715 130.1875 520.375 C129.45418457 520.75462891 128.72086914 521.13425781 127.96533203 521.52539062 C102.25470715 534.66898897 74.59986187 542.65903944 46.1875 547.375 C45.1550415 547.55603271 44.12258301 547.73706543 43.05883789 547.92358398 C31.89464269 549.66286385 20.80713207 549.71297413 9.52978516 549.69067383 C6.22133827 549.68753213 2.91380464 549.71098538 -0.39453125 549.73632812 C-19.05147356 549.79261478 -37.38654849 548.11763547 -55.5625 543.75 C-56.62484863 543.49839111 -57.68719727 543.24678223 -58.78173828 542.98754883 C-78.52425015 538.13645731 -97.57997897 531.35593655 -115.8125 522.375 C-116.58964355 521.99794922 -117.36678711 521.62089844 -118.16748047 521.23242188 C-139.33142536 510.88034951 -159.22504503 497.4155484 -176.55859375 481.4453125 C-178.56553483 479.60184843 -180.61162242 477.82720907 -182.6875 476.0625 C-190.93674494 468.84649382 -198.81197412 461.04227403 -205.43859005 452.2964592 C-207.70783859 449.34777227 -207.70783859 449.34777227 -210.38008213 447.07283401 C-219.68130945 437.78950632 -219.16389985 426.91247805 -219.20111084 414.44837952 C-219.19329503 412.23485701 -219.17922892 410.02144624 -219.16372383 407.80796504 C-219.14716499 403.88803915 -219.18837041 399.96863417 -219.22175598 396.0488739 C-219.2776062 388.38382057 -219.27936375 380.719687 -219.26070463 373.05448833 C-219.24628161 366.81915382 -219.25038718 360.58408829 -219.26747322 354.34876251 C-219.26987172 353.45899049 -219.27227022 352.56921847 -219.2747414 351.65248366 C-219.27965593 349.84448996 -219.28459518 348.03649634 -219.28955889 346.22850278 C-219.33352971 329.29757268 -219.3140386 312.36715987 -219.27420289 295.43624952 C-219.23966043 279.9769062 -219.28012803 264.51884705 -219.35684144 249.05968913 C-219.43517263 233.15413511 -219.46516409 217.24917586 -219.44235379 201.34343457 C-219.43032949 192.42636909 -219.43653369 183.51026746 -219.49264336 174.59334564 C-219.53980112 167.00099826 -219.54051596 159.41031344 -219.48314988 151.81800929 C-219.45513305 147.95057234 -219.44714988 144.08608097 -219.49675369 140.21879387 C-219.68503239 124.41598217 -219.62599198 111.55141667 -208.06265354 99.57059097 C-207.23397178 98.76498317 -207.23397178 98.76498317 -206.38854897 97.94310045 C-204.04383551 95.61021213 -202.08693584 93.05100592 -200.0625 90.4375 C-196.46432431 86.08805685 -192.72882447 81.87789903 -188.92578125 77.70703125 C-187.03873463 75.62465264 -185.20191767 73.50996936 -183.375 71.375 C-175.9009238 62.83565317 -167.72467985 55.37999735 -158.8125 48.375 C-157.29849609 47.15296875 -157.29849609 47.15296875 -155.75390625 45.90625 C-111.88740782 10.86456322 -54.90367586 -0.11240738 0 0 Z " fill="#FDFDFD" transform="translate(2298.8125,852.625)"/>
<path d="M0 0 C77.55 0 155.1 0 235 0 C235 157.08 235 314.16 235 476 C330.7 476 426.4 476 525 476 C525 526.82 525 577.64 525 630 C450.31082279 630.12099405 450.31082279 630.12099405 419.02929688 630.14648438 C411.87036112 630.15235717 404.71142556 630.15841838 397.55249023 630.16479492 C396.20677918 630.16598179 396.20677918 630.16598179 394.83388203 630.16719264 C380.38816248 630.18020747 365.94247909 630.2038405 351.49678091 630.23145839 C336.64944883 630.25960543 321.80213556 630.27619582 306.9547779 630.28226548 C297.80798006 630.28636273 288.66128444 630.2992592 279.5145181 630.3237494 C273.22514154 630.33972167 266.9358171 630.34437465 260.64642177 630.34050413 C257.02864926 630.33860026 253.41105417 630.34132311 249.79331398 630.35761642 C221.08359376 630.48029267 194.03304918 627.81054589 168 615 C167.04915527 614.53787109 167.04915527 614.53787109 166.07910156 614.06640625 C151.29677647 606.79962329 138.82005545 597.40791963 127 586 C126.14792969 585.21109375 125.29585937 584.4221875 124.41796875 583.609375 C97.67540485 558.17235359 81.95473352 519.43163008 80.90870273 482.80306971 C80.87475361 479.21342228 80.87147059 475.62503249 80.87974548 472.03523254 C80.87930855 470.65218021 80.8784314 469.26912796 80.87715632 467.88607615 C80.87493532 464.11419416 80.87889959 460.34234092 80.88393438 456.57046258 C80.88827332 452.49222658 80.88679002 448.41399206 80.8860321 444.33575439 C80.88550905 437.27940808 80.88863304 430.22307105 80.89426994 423.16672707 C80.90241453 412.96457559 80.90500319 402.76242858 80.90625793 392.56027421 C80.90844381 376.0059192 80.91509129 359.45156913 80.92456055 342.8972168 C80.93374668 326.82104517 80.94082164 310.74487489 80.94506836 294.66870117 C80.94533108 293.6769216 80.94559381 292.68514203 80.94586449 291.66330854 C80.94716958 286.6875898 80.94843327 281.71187105 80.94967639 276.73615229 C80.96003454 235.4907638 80.97846505 194.24538446 81 153 C54.27 153 27.54 153 0 153 C0 102.51 0 52.02 0 0 Z " fill="#FDFDFD" transform="translate(1032,954)"/>
</svg>
